<?xml version="1.0" encoding="utf-8"?>
<!-- Generator: Adobe Illustrator 16.0.0, SVG Export Plug-In . SVG Version: 6.00 Build 0)  -->
<!DOCTYPE svg PUBLIC "-//W3C//DTD SVG 1.1//EN" "http://www.w3.org/Graphics/SVG/1.1/DTD/svg11.dtd">
<svg version="1.1" id="Layer_1" xmlns="http://www.w3.org/2000/svg" xmlns:xlink="http://www.w3.org/1999/xlink" x="0px" y="0px"
	 width="100px" height="100px" viewBox="0 0 100 100" enable-background="new 0 0 100 100" xml:space="preserve">
<g id="XMLID_2_">
	<g>
		<polygon fill="#FFFFFF" points="66.175,48.332 80,69.999 53.454,62.114 53.454,62.104 		"/>
	</g>
	<g>
		<polyline fill="none" stroke="#FFFFFF" stroke-miterlimit="10" points="23.922,53.347 53.454,62.114 80,69.999 		"/>
		<polyline fill="none" stroke="#FFFFFF" stroke-miterlimit="10" points="80,69.999 66.175,48.332 48.019,19.883 		"/>
		<line fill="none" stroke="#FFFFFF" stroke-miterlimit="10" x1="66.175" y1="48.332" x2="53.454" y2="62.104"/>
	</g>
</g>
<g id="XMLID_1_">
	<g>
		<polygon fill="#FFFFFF" points="48.019,19.883 32.427,16.371 39.787,31.7 24.017,27.326 32.07,41.866 15.69,38.365 23.922,53.347 
			-19.003,20.492 7.406,-10.522 		"/>
	</g>
	<g>
		<line fill="none" stroke="#FFFFFF" stroke-miterlimit="10" x1="23.922" y1="53.347" x2="15.69" y2="38.365"/>
		<line fill="none" stroke="#FFFFFF" stroke-miterlimit="10" x1="15.69" y1="38.365" x2="32.07" y2="41.866"/>
		<line fill="none" stroke="#FFFFFF" stroke-miterlimit="10" x1="32.07" y1="41.866" x2="24.017" y2="27.326"/>
		<line fill="none" stroke="#FFFFFF" stroke-miterlimit="10" x1="24.017" y1="27.326" x2="39.787" y2="31.7"/>
		<line fill="none" stroke="#FFFFFF" stroke-miterlimit="10" x1="39.787" y1="31.7" x2="32.427" y2="16.371"/>
		<line fill="none" stroke="#FFFFFF" stroke-miterlimit="10" x1="32.427" y1="16.371" x2="48.019" y2="19.883"/>
		<line fill="none" stroke="#FFFFFF" stroke-miterlimit="10" x1="-19.003" y1="20.492" x2="7.406" y2="-10.522"/>
		<line fill="none" stroke="#FFFFFF" stroke-miterlimit="10" x1="7.406" y1="-10.522" x2="48.019" y2="19.883"/>
		<line fill="none" stroke="#FFFFFF" stroke-miterlimit="10" x1="-19.003" y1="20.492" x2="23.922" y2="53.347"/>
	</g>
</g>
</svg>
