<?xml version="1.0" encoding="utf-8"?>
<!-- Generator: Adobe Illustrator 16.0.0, SVG Export Plug-In . SVG Version: 6.00 Build 0)  -->
<!DOCTYPE svg PUBLIC "-//W3C//DTD SVG 1.1//EN" "http://www.w3.org/Graphics/SVG/1.1/DTD/svg11.dtd">
<svg version="1.1" id="Layer_1" xmlns="http://www.w3.org/2000/svg" xmlns:xlink="http://www.w3.org/1999/xlink" x="0px" y="0px"
	 width="27.667px" height="26.333px" viewBox="0 0 27.667 26.333" enable-background="new 0 0 27.667 26.333" xml:space="preserve">
<path fill="#FFFFFF" d="M10.213,13.977c0,2.243,1.82,4.062,4.063,4.062c2.244,0,4.062-1.819,4.062-4.062s-1.816-4.062-4.062-4.062
	C12.034,9.916,10.213,11.735,10.213,13.977 M23.027,7.103h-4.375c-0.312-1.249-0.625-2.5-1.875-2.5h-5c-1.25,0-1.562,1.25-1.875,2.5
	H5.527c-0.688,0-1.25,0.562-1.25,1.25v11.249c0,0.688,0.563,1.251,1.25,1.251h17.5c0.688,0,1.25-0.562,1.25-1.251V8.353
	C24.277,7.666,23.712,7.103,23.027,7.103 M14.277,19.526c-3.063,0-5.547-2.484-5.547-5.549c0-3.062,2.483-5.546,5.547-5.546
	c3.064,0,5.547,2.482,5.547,5.546C19.826,17.042,17.339,19.526,14.277,19.526 M23.027,10.853h-2.5v-1.25h2.5V10.853z"/>
</svg>
