<?xml version="1.0" encoding="utf-8"?>
<!-- Generator: Adobe Illustrator 16.0.0, SVG Export Plug-In . SVG Version: 6.00 Build 0)  -->
<!DOCTYPE svg PUBLIC "-//W3C//DTD SVG 1.1//EN" "http://www.w3.org/Graphics/SVG/1.1/DTD/svg11.dtd">
<svg version="1.1" xmlns="http://www.w3.org/2000/svg" xmlns:xlink="http://www.w3.org/1999/xlink" x="0px" y="0px" width="100px"
	 height="100px" viewBox="0 0 100 100" enable-background="new 0 0 100 100" xml:space="preserve">
<g id="Layer_1">
	<path fill="#FFFFFF" d="M97.821-0.493c0.956,4.313-1.766,8.586-6.079,9.542L9.733,27.229c-4.313,0.957-8.585-1.765-9.542-6.079l0,0
		c-0.956-4.313,1.766-8.585,6.079-9.542L88.279-6.572C92.593-7.528,96.865-4.807,97.821-0.493L97.821-0.493z"/>
</g>
<g id="Layer_1_copy">
	<path fill="#CABBDC" d="M102.366,20.009c0.957,4.314-1.766,8.586-6.078,9.542l-82.01,18.181c-4.313,0.957-8.585-1.765-9.541-6.079
		l0,0c-0.957-4.313,1.765-8.586,6.078-9.542l82.01-18.181C97.138,12.974,101.41,15.695,102.366,20.009L102.366,20.009z"/>
</g>
<g id="Layer_1_copy_2">
	<path fill="#FFFFFF" d="M106.912,40.512c0.956,4.312-1.766,8.585-6.079,9.542L18.824,68.234c-4.313,0.957-8.586-1.766-9.542-6.078
		l0,0c-0.956-4.314,1.766-8.586,6.078-9.543l82.01-18.18C101.683,33.477,105.955,36.198,106.912,40.512L106.912,40.512z"/>
</g>
<g id="Layer_1_copy_3">
	<path fill="#FFFFFF" d="M111.457,61.014c0.956,4.314-1.766,8.586-6.079,9.543l-82.009,18.18c-4.313,0.957-8.585-1.766-9.542-6.078
		l0,0c-0.956-4.312,1.766-8.586,6.079-9.543l82.009-18.18C106.229,53.979,110.501,56.701,111.457,61.014L111.457,61.014z"/>
</g>
<g id="Layer_1_copy_4">
	<path fill="#FFFFFF" d="M116.002,81.516c0.956,4.314-1.766,8.586-6.078,9.543l-82.01,18.18c-4.313,0.957-8.585-1.766-9.541-6.078
		l0,0c-0.956-4.312,1.765-8.586,6.078-9.543l82.009-18.18C110.773,74.48,115.046,77.203,116.002,81.516L116.002,81.516z"/>
</g>
</svg>
